<?xml version="1.0" encoding="UTF-8" standalone="no"?><!DOCTYPE svg PUBLIC "-//W3C//DTD SVG 1.1//EN" "http://www.w3.org/Graphics/SVG/1.1/DTD/svg11.dtd"><svg width="100%" height="100%" viewBox="0 0 8031 218" version="1.1" xmlns="http://www.w3.org/2000/svg" xmlns:xlink="http://www.w3.org/1999/xlink" xml:space="preserve" xmlns:serif="http://www.serif.com/" style="fill-rule:evenodd;clip-rule:evenodd;stroke-linejoin:round;stroke-miterlimit:2;"><path d="M4.397,0l8001.07,5.407l1.278,22.126l-7999.82,184.728l-2.527,-212.261Z" style="fill:#baf88e;fill-opacity:0.9;"/><path d="M6.524,86.382l4330.14,-80.749l329.882,0.184l-4662.9,208.301l2.881,-127.736Z" style="fill:#95e748;fill-opacity:0.6;"/><path d="M8007.63,160.734l-2730.64,-154.752l666.31,0l2064.21,1.626l0.118,153.126Z" style="fill:#449cb9;fill-opacity:0.8;"/><path d="M8005.91,216.428l-8005.91,-93.939l5248.51,-109.596l2757.28,122.352l0.118,81.183Z" style="fill:#449cb9;fill-opacity:0.2;"/><path d="M8030.88,210.586l-7034.48,-209.701l666.667,-0l3040.31,0.022l3327.49,209.679Z" style="fill:#449cb9;fill-opacity:0.2;"/><path d="M8004.67,217.683l-1373.89,-27.684l495.707,-86.447l878.207,-42.557l-0.026,156.688Z" style="fill:#0f566d;fill-opacity:0.8;"/></svg>