<?xml version="1.0" encoding="UTF-8" standalone="no"?><!DOCTYPE svg PUBLIC "-//W3C//DTD SVG 1.1//EN" "http://www.w3.org/Graphics/SVG/1.1/DTD/svg11.dtd"><svg width="100%" height="100%" viewBox="0 0 9357 1997" version="1.1" xmlns="http://www.w3.org/2000/svg" xmlns:xlink="http://www.w3.org/1999/xlink" xml:space="preserve" xmlns:serif="http://www.serif.com/" style="fill-rule:evenodd;clip-rule:evenodd;stroke-linejoin:round;stroke-miterlimit:2;"><path d="M9335.68,1158.92l-6896.89,-1038.09l283.333,-16.666l6615.31,600.118l-1.756,454.633Z" style="fill:#0f566d;fill-opacity:0.8;"/><path d="M1330.12,111.615l7981.24,0l-7.735,32.94l-7969.18,127.053l-4.329,-159.993Z" style="fill:#baf88e;fill-opacity:0.9;"/><path d="M1332.25,197.998l4256.24,-39.295l317.266,-1.618l-4569.18,165.043l-4.329,-124.13Z" style="fill:#95e748;fill-opacity:0.6;"/><path d="M9329.22,917.252l-2732.1,-804.752l666.667,0l2065.31,8.452l0.118,796.3Z" style="fill:#449cb9;fill-opacity:0.9;"/><path d="M8029.22,1996.42l-8029.22,-921.418l5263.79,-1075l2765.31,1200.12l0.118,796.299Z" style="fill:#449cb9;fill-opacity:0.2;"/><path d="M9356.6,1858.92l-7034.48,-1746.42l666.667,0l3040.31,0.184l3327.49,1746.23Z" style="fill:#449cb9;fill-opacity:0.2;"/></svg>